PathFileType	4	(X/Y/Z)	 s05c0201.trc
DataRate	CameraRate	NumFrames	NumMarkers	Units	OrigDataRate	OrigDataStartFrame	OrigNumFrames
200	200	4	50	mm	200	1	2000
Frame#	Time	racr			lacr			c7			jug			rlel			rdr			llel			ldr			s2			lic			ric			lasi			rasi			rpsi			lpsi			rgt			lgt			rth1			rth2			rth3			rth4			rlfc			rmfc			rsh1			rsh2			rsh3			rsh4			rlmal			rmmal			rcal			rtoe			rmt5			lth1			lth2			lth4			lth3			llfc			lmfc			lsh1			lsh2			lsh3			lsh4			llmal			lmmal			lcal			ltoe			lmt5			SBIKE			LBIKE			RBIKE			
		X1	Y1	Z1	X2	Y2	Z2	X3	Y3	Z3	X4	Y4	Z4	X5	Y5	Z5	X6	Y6	Z6	X7	Y7	Z7	X8	Y8	Z8	X9	Y9	Z9	X10	Y10	Z10	X11	Y11	Z11	X12	Y12	Z12	X13	Y13	Z13	X14	Y14	Z14	X15	Y15	Z15	X16	Y16	Z16	X17	Y17	Z17	X18	Y18	Z18	X19	Y19	Z19	X20	Y20	Z20	X21	Y21	Z21	X22	Y22	Z22	X23	Y23	Z23	X24	Y24	Z24	X25	Y25	Z25	X26	Y26	Z26	X27	Y27	Z27	X28	Y28	Z28	X29	Y29	Z29	X30	Y30	Z30	X31	Y31	Z31	X32	Y32	Z32	X33	Y33	Z33	X34	Y34	Z34	X35	Y35	Z35	X36	Y36	Z36	X37	Y37	Z37	X38	Y38	Z38	X39	Y39	Z39	X40	Y40	Z40	X41	Y41	Z41	X42	Y42	Z42	X43	Y43	Z43	X44	Y44	Z44	X45	Y45	Z45	X46	Y46	Z46	X47	Y47	Z47	X48	Y48	Z48	X49	Y49	Z49	X50	Y50	Z50	
1	0.0050	404.082462	1402.099402	-115.829074	412.177320	1420.632308	-406.391210	385.640317	1487.310283	-262.508530	377.815140	1329.807029	-265.219440	502.966722	1160.159575	-17.132780	685.377749	966.785304	-48.332076	490.309350	1164.374820	-512.211797	689.678374	974.337695	-474.135792	-108.893626	1156.998353	-265.245224	42.611880	1181.025926	-405.841575	39.756889	1194.164958	-125.834624	92.634894	1128.421739	-372.010809	82.035807	1133.734948	-154.076557	-79.631762	1203.913322	-225.306124	-75.733498	1207.225047	-311.323928	5.103724	1065.140897	-92.321079	-24.428393	1069.918765	-433.748070	106.599411	1011.659421	-80.364303	194.421564	998.302727	-80.209894	262.231733	941.896443	-81.691581	208.337414	1030.122679	-93.675923	396.024052	862.233778	-108.552621	386.005575	855.855667	-218.588925	333.977548	769.659774	-85.334564	325.971057	682.247709	-94.612298	276.829656	611.263099	-98.776952	354.585907	673.947315	-119.255476	236.428820	482.277615	-109.113107	249.334901	512.231753	-187.341209	164.704640	450.516688	-154.264362	458.846839	425.750412	-147.096630	357.500593	402.941151	-82.722266	57.491447	953.807833	-456.622610	128.385383	906.113195	-457.596608	157.060354	926.707621	-444.368071	165.965827	823.250587	-462.708608	238.587547	690.309653	-436.264919	229.257421	680.488707	-325.994038	144.457949	603.824663	-456.871529	106.808315	525.349844	-443.811168	32.898048	476.490670	-441.121490	132.139213	508.061360	-420.910265	-41.433662	377.080358	-430.548730	-9.186370	394.629397	-353.934509	-113.667471	356.786754	-386.960519	159.511537	248.610140	-395.849332	48.763699	257.685483	-458.126997	-260.325567	898.519095	-280.406334	-43.598299	85.107617	-474.902311	-51.594433	79.734428	-77.359998	
2	0.0100	404.066461	1402.073613	-115.857585	412.156452	1420.634583	-406.426356	385.625461	1487.250029	-262.551444	377.827670	1329.735265	-265.266410	502.919686	1160.144285	-17.090859	685.365979	966.787396	-48.326670	490.252411	1164.367488	-512.163901	689.625007	974.321030	-474.058411	-108.968496	1156.979517	-265.263710	42.561653	1181.032757	-405.955084	39.703715	1194.118112	-125.862713	92.563003	1128.377410	-372.094686	82.002210	1133.745323	-154.118108	-79.696209	1203.906127	-225.351980	-75.792383	1207.228175	-311.360224	5.038355	1065.232761	-92.327251	-24.589988	1069.869236	-433.775521	106.527441	1011.856443	-80.357454	194.395756	998.610911	-80.138388	262.239596	942.257029	-81.506519	208.271853	1030.410744	-93.611488	396.101462	862.785940	-108.364702	386.135960	856.368910	-218.384216	333.994373	770.218381	-85.183369	325.897586	682.825177	-94.491829	276.701418	611.854541	-98.702586	354.468218	674.431114	-119.162200	236.187425	482.939064	-109.162389	249.092422	512.865743	-187.318010	164.400182	451.268322	-154.253748	458.490459	426.453799	-147.096827	357.165066	403.615410	-82.715459	57.171457	953.632081	-456.669548	128.055711	905.861633	-457.667323	156.730626	926.422967	-444.467218	165.288279	822.913986	-463.141221	238.064412	690.011032	-436.373022	228.744671	680.125648	-326.113052	143.989136	603.394702	-456.929354	106.536712	524.914048	-443.889316	32.703406	475.814351	-441.126501	131.894669	507.614112	-421.001051	-41.387723	376.305508	-430.590391	-8.820514	393.661872	-354.097107	-113.576467	355.830581	-386.964573	159.763243	248.102568	-395.870348	49.000483	257.004458	-458.135232	-260.308625	898.619893	-280.165665	-43.603362	85.109389	-474.913759	-51.593968	79.747228	-77.319109	
3	0.0150	404.073804	1402.066163	-115.890414	412.118855	1420.633518	-406.450633	385.600657	1487.227361	-262.559369	377.832598	1329.684266	-265.306258	502.867425	1160.115236	-17.065127	685.341822	966.792820	-48.354483	490.217175	1164.346049	-512.128974	689.591485	974.313439	-473.998137	-109.029030	1156.980885	-265.280818	42.517789	1181.015836	-406.042505	39.684219	1194.067330	-125.890546	92.499948	1128.333410	-372.172704	81.972208	1133.747951	-154.187215	-79.734124	1203.906937	-225.389694	-75.841425	1207.222465	-311.397096	5.008965	1065.312026	-92.316858	-24.739223	1069.817508	-433.815677	106.497675	1012.044504	-80.349081	194.346007	998.845160	-80.086275	262.240602	942.585722	-81.339619	208.190673	1030.738576	-93.506632	396.199040	863.252641	-108.143503	386.255225	856.854026	-218.148937	334.008260	770.742956	-85.028265	325.803082	683.363102	-94.399187	276.560760	612.530953	-98.671150	354.359671	674.853086	-119.090972	235.851527	483.573539	-109.156942	248.750740	513.569310	-187.349163	164.126349	451.944728	-154.290494	458.210567	427.059874	-147.086945	356.845577	404.223697	-82.697434	56.917835	953.496280	-456.735189	127.723758	905.635478	-457.726734	156.445611	926.165756	-444.551053	164.856294	822.643310	-463.223007	237.572066	689.805720	-436.445733	228.127164	679.630255	-326.928699	143.568605	602.997480	-456.982360	106.252501	524.432356	-443.958135	32.526409	475.205287	-441.134170	131.668514	507.081280	-421.059410	-41.377148	375.501328	-430.543153	-8.982688	392.982951	-354.060572	-113.502052	354.931329	-386.952079	159.990386	247.649220	-395.859942	49.229762	256.340119	-458.133215	-260.278297	898.571128	-280.241035	-43.609664	85.118635	-474.924350	-51.597449	79.738793	-77.344999	
4	0.0200	404.113681	1402.032248	-115.912878	412.131743	1420.641240	-406.497723	385.604052	1487.189619	-262.623832	377.854190	1329.630837	-265.359444	502.814406	1160.090174	-17.023788	685.297714	966.785775	-48.421409	490.178877	1164.313380	-512.065451	689.558223	974.297262	-473.906168	-109.093458	1156.981676	-265.292770	42.460495	1180.999582	-406.103400	39.655397	1194.012787	-125.918245	92.435011	1128.275535	-372.240751	81.928723	1133.731827	-154.241462	-79.775661	1203.902780	-225.427454	-75.733274	1207.445420	-312.177889	4.887512	1065.240480	-92.291590	-24.908566	1069.777505	-433.828332	106.408066	1012.126248	-80.297462	194.274159	999.187779	-79.942943	262.154546	943.021781	-81.300392	208.021058	1030.921029	-93.600097	396.303862	863.687380	-107.929076	386.388660	857.283242	-217.855091	334.018834	771.233030	-84.903844	324.668656	682.905458	-94.898548	276.359406	613.093132	-98.597599	354.580816	675.434798	-118.778996	235.222404	484.770729	-108.904699	248.683957	514.181507	-187.332224	163.836739	452.613744	-154.292618	457.936985	427.625647	-147.065602	356.703603	404.785856	-82.755445	56.672100	953.368283	-456.808976	127.604556	904.845783	-457.647694	156.054920	925.851118	-444.453748	164.446722	822.387489	-463.279890	237.059272	689.516259	-436.490097	227.713897	679.369433	-326.992271	143.137993	602.631737	-457.039604	106.001596	523.934933	-444.015287	32.348535	474.597790	-441.167939	130.821711	506.643197	-420.606806	-41.346294	374.833222	-430.650933	-9.064438	392.402041	-354.013360	-113.352947	354.149216	-387.147060	160.245098	247.160515	-395.877509	49.484859	255.711079	-458.121293	-260.351934	898.597736	-280.216406	-43.603286	85.108734	-474.922992	-51.592114	79.750193	-77.336028	
